<?xml version="1.0" encoding="UTF-8" standalone="no"?>
<svg
   xmlns:dc="http://purl.org/dc/elements/1.1/"
   xmlns:cc="http://creativecommons.org/ns#"
   xmlns:rdf="http://www.w3.org/1999/02/22-rdf-syntax-ns#"
   xmlns:svg="http://www.w3.org/2000/svg"
   xmlns="http://www.w3.org/2000/svg"
   viewBox="0 0 1365.3333 1109.3333"
   height="1109.3333"
   width="1365.3333"
   xml:space="preserve"
   id="svg2"
   version="1.1"><metadata
     id="metadata8"><rdf:RDF><cc:Work
         rdf:about=""><dc:format>image/svg+xml</dc:format><dc:type
           rdf:resource="http://purl.org/dc/dcmitype/StillImage" /></cc:Work></rdf:RDF></metadata><defs
     id="defs6"><clipPath
       id="clipPath18"
       clipPathUnits="userSpaceOnUse"><path
         id="path16"
         d="M 0,832 H 1024 V 0 H 0 Z" /></clipPath></defs><g
     transform="matrix(1.3333333,0,0,-1.3333333,0,1109.3333)"
     id="g10"><g
       id="g12"><g
         clip-path="url(#clipPath18)"
         id="g14"><g
           transform="translate(551.8407,340.2126)"
           id="g20"><path
             id="path22"
             style="fill:#2eb2ef;fill-opacity:1;fill-rule:nonzero;stroke:none"
             d="M 0,0 C -1.926,-2.682 -3.825,-2.193 -4.222,1.082 L -22.78,154.503 c -0.397,3.276 1.43,4.325 4.058,2.33 L 104.386,63.42 c 2.629,-1.994 2.092,-3.879 -1.194,-4.188 L 44.14,53.688 c -3.286,-0.309 -7.549,-2.754 -9.475,-5.434 z" /></g><g
           transform="translate(523.873,406.3806)"
           id="g24"><path
             id="path26"
             style="fill:#343434;fill-opacity:1;fill-rule:nonzero;stroke:none"
             d="M 0,0 -2.533,26.293 -155.508,67.594 -170.709,49.975 Z" /></g><g
           transform="translate(253.5898,485.5061)"
           id="g28"><path
             id="path30"
             style="fill:#f6c342;fill-opacity:1;fill-rule:nonzero;stroke:none"
             d="m 0,0 99.575,-29.151 15.2,17.619 -45.025,12.157 77.429,25.402 25.682,29.768 z" /></g><g
           transform="translate(510.0898,538.0061)"
           id="g32"><path
             id="path34"
             style="fill:#343434;fill-opacity:1;fill-rule:nonzero;stroke:none"
             d="m 0,0 129.409,10.082 -11.97,10.513 z" /></g><g
           transform="translate(461.5942,705.3835)"
           id="g36"><path
             id="path38"
             style="fill:#f0463b;fill-opacity:1;fill-rule:nonzero;stroke:none"
             d="m 0,0 20.132,-17.663 102.272,36.486 29.638,35.344 z" /></g><g
           transform="translate(725.0898,676.0822)"
           id="g40"><path
             id="path42"
             style="fill:#00a9a0;fill-opacity:1;fill-rule:nonzero;stroke:none"
             d="m 0,0 -21.125,-23.554 v -80.522 l -76.436,-13.405 11.97,-10.513 85.591,6.668 z" /></g><g
           transform="translate(725.0898,799.2561)"
           id="g44"><path
             id="path46"
             style="fill:#343434;fill-opacity:1;fill-rule:nonzero;stroke:none"
             d="m 0,0 -111.453,-39.706 -29.639,-35.343 119.967,42.799 V -146.728 L 0,-123.174 Z" /></g><g
           transform="translate(452.4648,702.1311)"
           id="g48"><path
             id="path50"
             style="fill:#343434;fill-opacity:1;fill-rule:nonzero;stroke:none"
             d="m 0,0 -13.375,-156.75 -12.639,-4.08 -25.682,-29.768 57.071,18.723 L 18.5,-18.25 29.261,-14.411 9.129,3.252 Z" /></g><g
           transform="translate(686.5887,506.7273)"
           id="g52"><path
             id="path54"
             style="fill:#00a9a0;fill-opacity:1;fill-rule:nonzero;stroke:none"
             d="M 0,0 3.562,-3.129 34.084,27.279 Z" /></g><g
           transform="translate(621.3398,454.5056)"
           id="g56"><path
             id="path58"
             style="fill:#343434;fill-opacity:1;fill-rule:nonzero;stroke:none"
             d="m 0,0 11.5,-8 57.31,57.093 -3.561,3.129 z" /></g><g
           transform="translate(103.2385,249.6384)"
           id="g60"><path
             id="path62"
             style="fill:#343434;fill-opacity:1;fill-rule:nonzero;stroke:none"
             d="m 0,0 38.803,69.933 1.648,2.97 H 37.054 19.511 18.329 L 17.759,71.867 -19.792,3.63 v 67.273 2 h -2 -17.321 -2 v -2 -155.442 -2 h 2 17.321 2 v 2 51.635 l 6.942,11.682 31.678,-64.202 0.551,-1.115 h 1.243 17.765 3.179 l -1.377,2.866 z" /></g><g
           transform="translate(154.9461,322.5417)"
           id="g64"><path
             id="path66"
             style="fill:#343434;fill-opacity:1;fill-rule:nonzero;stroke:none"
             d="m 0,0 h -2 v -2 -155.442 -2 h 2 63.954 2 v 2 15.766 2 h -2 -44.633 v 51.293 h 35.972 2 v 2 15.544 2 h -2 -35.972 v 49.073 h 44.633 2 v 2 V -2 0 h -2 z" /></g><g
           transform="translate(296.1721,322.5417)"
           id="g68"><path
             id="path70"
             style="fill:#343434;fill-opacity:1;fill-rule:nonzero;stroke:none"
             d="M 0,0 H -1.46 L -1.905,-1.391 -24.418,-71.795 -46.725,-1.395 -47.167,0 h -1.464 -17.988 -2.765 l 0.866,-2.626 32.765,-99.4 v -55.416 -2 h 2 17.098 2 v 2 55.414 L 18.331,-2.63 19.204,0 h -2.771 z" /></g><g
           transform="translate(399.2044,322.5417)"
           id="g72"><path
             id="path74"
             style="fill:#2eb2ef;fill-opacity:1;fill-rule:nonzero;stroke:none"
             d="M 0,0 H -1.642 L -1.961,-1.61 -24.684,-116.038 -48.227,-1.597 -48.555,0 h -1.631 -24.205 -2 v -2 -155.442 -2 h 2 15.101 2 v 2 104.497 l 21.801,-104.684 0.331,-1.592 h 1.627 16.655 1.643 l 0.318,1.613 20.687,104.738 v -104.572 -2 h 2 16.433 2 v 2 V -2 0 h -2 z" /></g><g
           transform="translate(458.9368,283.9021)"
           id="g76"><path
             id="path78"
             style="fill:#2eb2ef;fill-opacity:1;fill-rule:nonzero;stroke:none"
             d="M 0,0 C 0,13.555 5.528,20.428 16.431,20.428 27.333,20.428 32.862,13.555 32.862,0 v -82.163 c 0,-13.746 -5.375,-20.428 -16.431,-20.428 C 5.528,-102.591 0,-95.718 0,-82.163 Z m 16.431,40.194 c -23.85,0 -37.53,-14.974 -37.53,-41.083 v -80.385 c 0,-12.357 3.231,-22.619 9.343,-29.678 6.553,-7.568 16.036,-11.405 28.187,-11.405 12.249,0 21.797,3.836 28.378,11.402 6.133,7.049 9.374,17.312 9.374,29.681 v 80.385 c 0,26.109 -13.76,41.083 -37.752,41.083" /></g><g
           transform="translate(580.1765,322.5417)"
           id="g80"><path
             id="path82"
             style="fill:#2eb2ef;fill-opacity:1;fill-rule:nonzero;stroke:none"
             d="m 0,0 h -2 v -2 -118.803 c 0,-13.746 -5.229,-20.427 -15.986,-20.427 -10.907,0 -16.209,6.681 -16.209,20.427 V -2 0 h -2 -17.1 -2 v -2 -117.914 c 0,-12.623 2.985,-22.634 8.869,-29.753 6.336,-7.665 15.68,-11.552 27.773,-11.552 12.191,0 21.599,3.885 27.964,11.548 5.906,7.11 8.9,17.121 8.9,29.757 V -2 0 h -2 z" /></g><g
           transform="translate(653.9421,250.0622)"
           id="g84"><path
             id="path86"
             style="fill:#2eb2ef;fill-opacity:1;fill-rule:nonzero;stroke:none"
             d="m 0,0 c -11.898,9.664 -23.137,18.792 -23.137,34.284 0,13.446 5.157,19.984 15.765,19.984 10.608,0 15.765,-6.61 15.765,-20.206 v -5.108 -2 h 2 16.432 2 v 2 4.22 c 0,12.559 -3.016,22.501 -8.966,29.547 -6.338,7.507 -15.649,11.313 -27.675,11.313 -23.486,0 -36.42,-14.511 -36.42,-40.86 0,-24.099 15.4,-36.624 28.988,-47.674 11.814,-9.608 22.975,-18.684 22.975,-34.045 0,-13.408 -5.454,-20.206 -16.209,-20.206 -10.756,0 -16.209,6.798 -16.209,20.206 v 9.771 2 h -2 -16.211 -2 v -2 -8.882 c 0,-12.573 3.027,-22.515 8.997,-29.552 6.366,-7.505 15.742,-11.31 27.867,-11.31 23.568,0 37.085,14.894 37.085,40.862 C 29.047,-23.592 13.615,-11.058 0,0" /></g><g
           transform="translate(696.0867,322.5417)"
           id="g88"><path
             id="path90"
             style="fill:#2eb2ef;fill-opacity:1;fill-rule:nonzero;stroke:none"
             d="m 0,0 h -2 v -2 -155.442 -2 h 2 63.953 2 v 2 15.766 2 h -2 -44.633 v 51.293 h 35.973 2 v 2 15.544 2 h -2 -35.973 v 49.073 h 44.633 2 v 2 V -2 0 h -2 z" /></g><g
           transform="translate(914.1414,322.5417)"
           id="g92"><path
             id="path94"
             style="fill:#343434;fill-opacity:1;fill-rule:nonzero;stroke:none"
             d="m 0,0 h -74.612 -2 v -2 -15.766 -2 h 2 26.645 v -137.676 -2 h 2 17.321 2 v 2 137.676 H 0 2 v 2 L 2,-2 v 2 z" /></g><g
           transform="translate(829.7625,302.7761)"
           id="g96"><path
             id="path98"
             style="fill:#343434;fill-opacity:1;fill-rule:nonzero;stroke:none"
             d="m 0,0 v 17.766 2 h -2 -17.32 -2 v -2 V 0 Z" /></g><g
           transform="translate(808.4421,291.0349)"
           id="g100"><path
             id="path102"
             style="fill:#343434;fill-opacity:1;fill-rule:nonzero;stroke:none"
             d="m 0,0 v -125.936 -2 h 2 17.32 2 v 2 V 0 Z" /></g><g
           transform="translate(54.0286,146.0993)"
           id="g104"><path
             id="path106"
             style="fill:none;stroke:#231f20;stroke-width:2;stroke-linecap:butt;stroke-linejoin:miter;stroke-miterlimit:10;stroke-dasharray:none;stroke-opacity:1"
             d="M 0,0 H 870.21" /></g></g></g><text
       id="text110"
       style="font-variant:normal;font-weight:bold;font-stretch:normal;font-size:53.40819931px;font-family:Montserrat;-inkscape-font-specification:Montserrat-Bold;writing-mode:lr-tb;fill:#343434;fill-opacity:1;fill-rule:nonzero;stroke:none"
       transform="matrix(1,0,0,-1,69.9644,90.3535)"><tspan
         id="tspan108"
         y="0"
         x="0 39.522068 74.985115 111.08906 126.20358 158.67577 203.75229 218.86681 253.3685 298.44501 340.53067 379.78571 394.90024 412.41812 445.42438 460.53891 499.68713 542.84094 583.75165 616.01019 648.26874 684.10565 727.25946 768.43719 804.27411">KEY TO YOUR IT CHALLENGES</tspan></text>
</g></svg>