<svg xmlns="http://www.w3.org/2000/svg" version="1.1" xmlns:xlink="http://www.w3.org/1999/xlink" xmlns:svgjs="http://svgjs.dev/svgjs" width="1000" height="1000" viewBox="0 0 1000 1000"><rect width="1000" height="1000" fill="#ee3e38"></rect><g transform="matrix(0.7,0,0,0.7,149.57575757575756,282.1265587044535)"><svg viewBox="0 0 396 247" data-background-color="#ee3e38" preserveAspectRatio="xMidYMid meet" height="623" width="1000" xmlns="http://www.w3.org/2000/svg" xmlns:xlink="http://www.w3.org/1999/xlink"><g id="tight-bounds" transform="matrix(1,0,0,1,0.2400000000000091,-0.09999999999999432)"><svg viewBox="0 0 395.52 247.2" height="247.2" width="395.52"><g><svg></svg></g><g><svg viewBox="0 0 395.52 247.2" height="247.2" width="395.52"><g transform="matrix(1,0,0,1,120.0287560677966,47.21520000000001)"><svg viewBox="0 0 155.46248786440677 152.76959999999997" height="152.76959999999997" width="155.46248786440677"><g><svg viewBox="0 0 155.46248786440677 152.76959999999997" height="152.76959999999997" width="155.46248786440677"><g><svg viewBox="0 0 155.46248786440677 152.76959999999997" height="152.76959999999997" width="155.46248786440677"><g><svg viewBox="0 0 155.46248786440677 152.76959999999997" height="152.76959999999997" width="155.46248786440677"><g><svg viewBox="0 0 155.46248786440677 152.76959999999997" height="152.76959999999997" width="155.46248786440677"><g><svg viewBox="0 0 155.46248786440677 152.76959999999997" height="152.76959999999997" width="155.46248786440677"><g transform="matrix(1,0,0,1,0,0)"><svg width="155.46248786440677" viewBox="2.809999942779541 -35.349998474121094 36.63999938964844 36.0099983215332" height="152.76959999999997" data-palette-color="#ffffff"><path d="M2.81-17.5L2.81-17.5Q2.81-19.97 3.47-22.24 4.13-24.51 5.32-26.5 6.52-28.49 8.19-30.11 9.86-31.74 11.87-32.91 13.87-34.08 16.15-34.72 18.43-35.35 20.85-35.35L20.85-35.35Q22.14-35.35 23.49-35.19 24.83-35.03 26.11-34.79 27.39-34.55 28.54-34.25 29.69-33.96 30.55-33.72 31.42-33.47 31.97-33.31 32.52-33.15 32.59-33.15L32.59-33.15 32.89-33.15Q33.08-33.15 33.19-33.19 33.3-33.23 33.39-33.28 33.47-33.33 33.57-33.36 33.67-33.4 33.86-33.4L33.86-33.4 34.84-33.4Q34.89-33.4 35-33.36 35.11-33.33 35.11-33.13L35.11-33.13 35.11-25Q35.11-24.73 34.88-24.63 34.64-24.54 34.47-24.54L34.47-24.54Q34.25-24.56 34.08-24.78 33.91-25 33.76-25.27 33.62-25.54 33.52-25.78 33.42-26.03 33.4-26.15L33.4-26.15Q32.79-28.05 31.68-29.36 30.57-30.66 29.06-31.49 27.56-32.32 25.77-32.69 23.97-33.06 22-33.06L22-33.06Q18.6-33.06 16.33-31.81 14.06-30.57 12.68-28.47 11.3-26.37 10.73-23.62 10.16-20.87 10.16-17.85L10.16-17.85Q10.16-15.77 10.57-13.77 10.99-11.77 11.76-9.97 12.52-8.18 13.62-6.68 14.72-5.18 16.08-4.09 17.43-3 19.01-2.39 20.58-1.78 22.34-1.78L22.34-1.78Q24.32-1.78 25.82-2.21 27.32-2.64 28.25-3.88L28.25-3.88 28.25-9.28Q28.25-10.33 27.99-11.15 27.73-11.96 27.05-12.52 26.37-13.09 25.2-13.38 24.02-13.67 22.19-13.67L22.19-13.67Q22.05-13.67 21.98-13.95 21.92-14.23 21.92-14.43L21.92-14.43Q21.92-14.55 21.98-14.84 22.05-15.14 22.19-15.14L22.19-15.14 39.18-15.14Q39.38-15.14 39.42-14.86 39.45-14.58 39.45-14.43L39.45-14.43Q39.45-14.31 39.4-14.04 39.36-13.77 39.18-13.67L39.18-13.67Q38.53-13.4 37.83-13.21 37.13-13.01 36.55-12.7 35.96-12.38 35.58-11.83 35.21-11.28 35.21-10.33L35.21-10.33 35.21-3.2Q35.21-3 35.05-2.88 34.89-2.76 34.55-2.61L34.55-2.61Q33.18-1.95 31.45-1.37 29.71-0.78 27.88-0.33 26.05 0.12 24.24 0.39 22.44 0.66 20.95 0.66L20.95 0.66Q17.16 0.66 13.87-0.6 10.57-1.86 8.11-4.21 5.64-6.57 4.22-9.94 2.81-13.31 2.81-17.5Z" opacity="1" transform="matrix(1,0,0,1,0,0)" fill="#ffffff" class="undefined-text-0" data-fill-palette-color="primary" id="text-0"></path></svg></g></svg></g></svg></g></svg></g></svg></g></svg></g></svg></g><path d="M93.19 41.215L93.19 0 340.39 0 340.39 247.2 93.19 247.2 93.19 205.985 106.967 205.985 106.967 233.423 326.613 233.423 326.613 13.777 106.967 13.777 106.967 41.215Z" fill="#ffffff" stroke="transparent" data-fill-palette-color="primary"></path></svg></g><defs></defs></svg><rect width="395.52" height="247.2" fill="none" stroke="none" visibility="hidden"></rect></g></svg></g></svg>